<svg width="32" height="32" viewBox="0 0 32 32" fill="none" xmlns="http://www.w3.org/2000/svg">
<path d="M29.2927 24.4401C29.2927 24.9201 29.186 25.4134 28.9593 25.8934C28.7327 26.3734 28.4393 26.8267 28.0527 27.2534C27.3993 27.9734 26.6793 28.4934 25.866 28.8267C25.066 29.1601 24.1993 29.3334 23.266 29.3334C21.906 29.3334 20.4527 29.0134 18.9193 28.3601C17.386 27.7067 15.8527 26.8267 14.3327 25.7201C12.7993 24.6001 11.346 23.3601 9.95935 21.9867C8.58602 20.6001 7.34602 19.1467 6.23935 17.6267C5.14602 16.1067 4.26602 14.5867 3.62602 13.0801C2.98602 11.5601 2.66602 10.1067 2.66602 8.72008C2.66602 7.81341 2.82602 6.94675 3.14602 6.14675C3.46602 5.33341 3.97268 4.58675 4.67935 3.92008C5.53268 3.08008 6.46602 2.66675 7.45268 2.66675C7.82602 2.66675 8.19935 2.74675 8.53268 2.90675C8.87935 3.06675 9.18602 3.30675 9.42602 3.65341L12.5193 8.01341C12.7593 8.34675 12.9327 8.65341 13.0527 8.94675C13.1727 9.22675 13.2393 9.50675 13.2393 9.76008C13.2393 10.0801 13.146 10.4001 12.9593 10.7067C12.786 11.0134 12.5327 11.3334 12.2127 11.6534L11.1993 12.7067C11.0527 12.8534 10.986 13.0267 10.986 13.2401C10.986 13.3467 10.9993 13.4401 11.026 13.5467C11.066 13.6534 11.106 13.7334 11.1327 13.8134C11.3727 14.2534 11.786 14.8267 12.3727 15.5201C12.9727 16.2134 13.6127 16.9201 14.306 17.6267C15.026 18.3334 15.7193 18.9867 16.426 19.5867C17.1193 20.1734 17.6927 20.5734 18.146 20.8134C18.2127 20.8401 18.2927 20.8801 18.386 20.9201C18.4927 20.9601 18.5993 20.9734 18.7193 20.9734C18.946 20.9734 19.1193 20.8934 19.266 20.7467L20.2793 19.7467C20.6127 19.4134 20.9327 19.1601 21.2393 19.0001C21.546 18.8134 21.8527 18.7201 22.186 18.7201C22.4393 18.7201 22.706 18.7734 22.9993 18.8934C23.2927 19.0134 23.5993 19.1867 23.9327 19.4134L28.346 22.5467C28.6927 22.7867 28.9327 23.0667 29.0793 23.4001C29.2127 23.7334 29.2927 24.0667 29.2927 24.4401Z" stroke="#1360E2" stroke-width="1.5" stroke-miterlimit="10"/>
<path d="M24.6657 12C24.6657 11.2 24.039 9.97337 23.1057 8.97337C22.2524 8.05337 21.119 7.33337 19.999 7.33337" stroke="#1360E2" stroke-width="1.5" stroke-linecap="round" stroke-linejoin="round"/>
<path d="M29.3324 12.0001C29.3324 6.84008 25.159 2.66675 19.999 2.66675" stroke="#1360E2" stroke-width="1.5" stroke-linecap="round" stroke-linejoin="round"/>
</svg>
