<svg width="20" height="20" viewBox="0 0 20 20" fill="none" xmlns="http://www.w3.org/2000/svg">
<path d="M7.08976 7.00098C7.32486 6.33264 7.78891 5.76908 8.39971 5.41011C9.01051 5.05114 9.72865 4.91991 10.4269 5.03969C11.1252 5.15946 11.7586 5.5225 12.2148 6.0645C12.6711 6.60651 12.9208 7.2925 12.9198 8.00098C12.9198 10.001 9.91976 11.001 9.91976 11.001M9.99976 15.001H10.0098M5.79976 19.001H14.1998C15.8799 19.001 16.72 19.001 17.3617 18.674C17.9262 18.3864 18.3852 17.9274 18.6728 17.3629C18.9998 16.7212 18.9998 15.8811 18.9998 14.201V5.80098C18.9998 4.12082 18.9998 3.28074 18.6728 2.63901C18.3852 2.07452 17.9262 1.61558 17.3617 1.32796C16.72 1.00098 15.8799 1.00098 14.1998 1.00098H5.79976C4.1196 1.00098 3.27952 1.00098 2.63778 1.32796C2.0733 1.61558 1.61436 2.07452 1.32674 2.63901C0.999756 3.28074 0.999756 4.12082 0.999756 5.80098V14.201C0.999756 15.8811 0.999756 16.7212 1.32674 17.3629C1.61436 17.9274 2.0733 18.3864 2.63778 18.674C3.27952 19.001 4.1196 19.001 5.79976 19.001Z" stroke="#3A3A3A" stroke-width="1.5" stroke-linecap="round" stroke-linejoin="round"/>
</svg>
